# xmcd CD database file
# Copyright (C) 1996 Ti Kan
#
# Track frame offsets:
#  182
#  12422
#  28712
#  42107
#  55632
#  69067
#  79630
#  90882
#  106532
#  124080
#  136575
#  147285
#
# Disc length: 2104 seconds
#
# Revision: 2
# Processed by: cddbd v1.4PL0 Copyright (c) Steve Scherf et al.
# Submitted via: Gronk 1.4
#
DISCID=8108360c
DTITLE=Crystal Gayle - All-Time Greatest Hits
DYEAR=1900
DGENRE=country
TTITLE0=Don't It Make Your Brown Eyes Blue
TTITLE1=I'll Get Over You
TTITLE2=Talking In Your Sleep
TTITLE3=Why Have You Left The One You Left Me For
TTITLE4=I'll Do It All Over Again
TTITLE5=Wrong Road Again
TTITLE6=Somebody Loves You
TTITLE7=When I Dream
TTITLE8=You Never Miss A Real Good Thing (Till He Says Goodbye)
TTITLE9=I've Cried (The Blues Right Out Of My Eyes)
TTITLE10=Everybody Ought To Cry
TTITLE11=I Hope You're Havin' Bette Luck Than Me
EXTD=
EXTT0=
EXTT1=
EXTT2=
EXTT3=
EXTT4=
EXTT5=
EXTT6=
EXTT7=
EXTT8=
EXTT9=
EXTT10=
EXTT11=
PLAYORDER=
